<mxfile host="app.diagrams.net" modified="2021-01-04T06:30:20.489Z" agent="5.0 (Windows NT 10.0; Win64; x64) AppleWebKit/537.36 (KHTML, like Gecko) Chrome/86.0.4240.111 Safari/537.36" etag="WVnKJe5oPiMhZ0hR9zlK" version="14.1.3" type="github">
  <diagram id="C5RBs43oDa-KdzZeNtuy" name="Page-1">
    <mxGraphModel dx="1278" dy="548" grid="1" gridSize="10" guides="1" tooltips="1" connect="1" arrows="1" fold="1" page="1" pageScale="1" pageWidth="827" pageHeight="1169" math="0" shadow="0">
      <root>
        <mxCell id="WIyWlLk6GJQsqaUBKTNV-0" />
        <mxCell id="WIyWlLk6GJQsqaUBKTNV-1" parent="WIyWlLk6GJQsqaUBKTNV-0" />
        <mxCell id="alJw4LODeS85s_fLXmWw-11" style="edgeStyle=orthogonalEdgeStyle;rounded=0;orthogonalLoop=1;jettySize=auto;html=1;exitX=0.5;exitY=1;exitDx=0;exitDy=0;" edge="1" parent="WIyWlLk6GJQsqaUBKTNV-1" source="WIyWlLk6GJQsqaUBKTNV-3" target="alJw4LODeS85s_fLXmWw-0">
          <mxGeometry relative="1" as="geometry" />
        </mxCell>
        <mxCell id="WIyWlLk6GJQsqaUBKTNV-3" value="单片机上电" style="rounded=1;whiteSpace=wrap;html=1;fontSize=12;glass=0;strokeWidth=1;shadow=0;" parent="WIyWlLk6GJQsqaUBKTNV-1" vertex="1">
          <mxGeometry x="160" y="80" width="120" height="40" as="geometry" />
        </mxCell>
        <mxCell id="alJw4LODeS85s_fLXmWw-12" style="edgeStyle=orthogonalEdgeStyle;rounded=0;orthogonalLoop=1;jettySize=auto;html=1;exitX=0.5;exitY=1;exitDx=0;exitDy=0;entryX=0.5;entryY=0;entryDx=0;entryDy=0;" edge="1" parent="WIyWlLk6GJQsqaUBKTNV-1" source="alJw4LODeS85s_fLXmWw-0" target="alJw4LODeS85s_fLXmWw-3">
          <mxGeometry relative="1" as="geometry" />
        </mxCell>
        <mxCell id="alJw4LODeS85s_fLXmWw-0" value="模块初始化" style="rounded=1;whiteSpace=wrap;html=1;fontSize=12;glass=0;strokeWidth=1;shadow=0;" vertex="1" parent="WIyWlLk6GJQsqaUBKTNV-1">
          <mxGeometry x="160" y="150" width="120" height="40" as="geometry" />
        </mxCell>
        <mxCell id="alJw4LODeS85s_fLXmWw-15" value="YES" style="edgeStyle=orthogonalEdgeStyle;rounded=0;orthogonalLoop=1;jettySize=auto;html=1;exitX=0.5;exitY=1;exitDx=0;exitDy=0;entryX=0.5;entryY=0;entryDx=0;entryDy=0;" edge="1" parent="WIyWlLk6GJQsqaUBKTNV-1" source="alJw4LODeS85s_fLXmWw-1" target="alJw4LODeS85s_fLXmWw-4">
          <mxGeometry relative="1" as="geometry" />
        </mxCell>
        <mxCell id="alJw4LODeS85s_fLXmWw-24" style="edgeStyle=orthogonalEdgeStyle;rounded=0;orthogonalLoop=1;jettySize=auto;html=1;exitX=1;exitY=0.5;exitDx=0;exitDy=0;entryX=1;entryY=0.5;entryDx=0;entryDy=0;" edge="1" parent="WIyWlLk6GJQsqaUBKTNV-1" source="alJw4LODeS85s_fLXmWw-1" target="alJw4LODeS85s_fLXmWw-3">
          <mxGeometry relative="1" as="geometry" />
        </mxCell>
        <mxCell id="alJw4LODeS85s_fLXmWw-25" value="NO" style="edgeLabel;html=1;align=center;verticalAlign=middle;resizable=0;points=[];" vertex="1" connectable="0" parent="alJw4LODeS85s_fLXmWw-24">
          <mxGeometry x="-0.3267" y="-1" relative="1" as="geometry">
            <mxPoint as="offset" />
          </mxGeometry>
        </mxCell>
        <mxCell id="alJw4LODeS85s_fLXmWw-1" value="TPS5430是&lt;br&gt;否使能" style="rhombus;whiteSpace=wrap;html=1;shadow=0;fontFamily=Helvetica;fontSize=12;align=center;strokeWidth=1;spacing=6;spacingTop=-4;" vertex="1" parent="WIyWlLk6GJQsqaUBKTNV-1">
          <mxGeometry x="170" y="290" width="100" height="80" as="geometry" />
        </mxCell>
        <mxCell id="alJw4LODeS85s_fLXmWw-13" style="edgeStyle=orthogonalEdgeStyle;rounded=0;orthogonalLoop=1;jettySize=auto;html=1;exitX=0.5;exitY=1;exitDx=0;exitDy=0;entryX=0.5;entryY=0;entryDx=0;entryDy=0;" edge="1" parent="WIyWlLk6GJQsqaUBKTNV-1" source="alJw4LODeS85s_fLXmWw-3" target="alJw4LODeS85s_fLXmWw-1">
          <mxGeometry relative="1" as="geometry" />
        </mxCell>
        <mxCell id="alJw4LODeS85s_fLXmWw-3" value="进入主程序" style="rounded=1;whiteSpace=wrap;html=1;fontSize=12;glass=0;strokeWidth=1;shadow=0;" vertex="1" parent="WIyWlLk6GJQsqaUBKTNV-1">
          <mxGeometry x="160" y="220" width="120" height="40" as="geometry" />
        </mxCell>
        <mxCell id="alJw4LODeS85s_fLXmWw-16" style="edgeStyle=orthogonalEdgeStyle;rounded=0;orthogonalLoop=1;jettySize=auto;html=1;exitX=0.5;exitY=1;exitDx=0;exitDy=0;entryX=0.5;entryY=0;entryDx=0;entryDy=0;" edge="1" parent="WIyWlLk6GJQsqaUBKTNV-1" source="alJw4LODeS85s_fLXmWw-4" target="alJw4LODeS85s_fLXmWw-7">
          <mxGeometry relative="1" as="geometry" />
        </mxCell>
        <mxCell id="alJw4LODeS85s_fLXmWw-4" value="BUCK电路开始工作" style="rounded=1;whiteSpace=wrap;html=1;fontSize=12;glass=0;strokeWidth=1;shadow=0;" vertex="1" parent="WIyWlLk6GJQsqaUBKTNV-1">
          <mxGeometry x="160" y="400" width="120" height="40" as="geometry" />
        </mxCell>
        <mxCell id="alJw4LODeS85s_fLXmWw-17" style="edgeStyle=orthogonalEdgeStyle;rounded=0;orthogonalLoop=1;jettySize=auto;html=1;exitX=0.5;exitY=1;exitDx=0;exitDy=0;entryX=0.5;entryY=0;entryDx=0;entryDy=0;" edge="1" parent="WIyWlLk6GJQsqaUBKTNV-1" source="alJw4LODeS85s_fLXmWw-7" target="alJw4LODeS85s_fLXmWw-8">
          <mxGeometry relative="1" as="geometry" />
        </mxCell>
        <mxCell id="alJw4LODeS85s_fLXmWw-7" value="ADC采集输出电压" style="rounded=1;whiteSpace=wrap;html=1;fontSize=12;glass=0;strokeWidth=1;shadow=0;" vertex="1" parent="WIyWlLk6GJQsqaUBKTNV-1">
          <mxGeometry x="160" y="470" width="120" height="40" as="geometry" />
        </mxCell>
        <mxCell id="alJw4LODeS85s_fLXmWw-18" value="YES" style="edgeStyle=orthogonalEdgeStyle;rounded=0;orthogonalLoop=1;jettySize=auto;html=1;exitX=0.5;exitY=1;exitDx=0;exitDy=0;entryX=0.5;entryY=0;entryDx=0;entryDy=0;" edge="1" parent="WIyWlLk6GJQsqaUBKTNV-1" source="alJw4LODeS85s_fLXmWw-8" target="alJw4LODeS85s_fLXmWw-10">
          <mxGeometry relative="1" as="geometry" />
        </mxCell>
        <mxCell id="alJw4LODeS85s_fLXmWw-21" style="edgeStyle=orthogonalEdgeStyle;rounded=0;orthogonalLoop=1;jettySize=auto;html=1;exitX=1;exitY=0.5;exitDx=0;exitDy=0;entryX=0;entryY=0.5;entryDx=0;entryDy=0;" edge="1" parent="WIyWlLk6GJQsqaUBKTNV-1" source="alJw4LODeS85s_fLXmWw-8" target="alJw4LODeS85s_fLXmWw-9">
          <mxGeometry relative="1" as="geometry" />
        </mxCell>
        <mxCell id="alJw4LODeS85s_fLXmWw-23" value="NO" style="edgeLabel;html=1;align=center;verticalAlign=middle;resizable=0;points=[];" vertex="1" connectable="0" parent="alJw4LODeS85s_fLXmWw-21">
          <mxGeometry x="-0.3193" y="2" relative="1" as="geometry">
            <mxPoint as="offset" />
          </mxGeometry>
        </mxCell>
        <mxCell id="alJw4LODeS85s_fLXmWw-8" value="输出是否为5V" style="rhombus;whiteSpace=wrap;html=1;shadow=0;fontFamily=Helvetica;fontSize=12;align=center;strokeWidth=1;spacing=6;spacingTop=-4;" vertex="1" parent="WIyWlLk6GJQsqaUBKTNV-1">
          <mxGeometry x="170" y="544.5" width="100" height="80" as="geometry" />
        </mxCell>
        <mxCell id="alJw4LODeS85s_fLXmWw-22" style="edgeStyle=orthogonalEdgeStyle;rounded=0;orthogonalLoop=1;jettySize=auto;html=1;exitX=0.5;exitY=0;exitDx=0;exitDy=0;entryX=1;entryY=0.5;entryDx=0;entryDy=0;" edge="1" parent="WIyWlLk6GJQsqaUBKTNV-1" source="alJw4LODeS85s_fLXmWw-9" target="alJw4LODeS85s_fLXmWw-4">
          <mxGeometry relative="1" as="geometry" />
        </mxCell>
        <mxCell id="alJw4LODeS85s_fLXmWw-9" value="DAC输出对BUCK电路进行校正" style="rounded=1;whiteSpace=wrap;html=1;fontSize=12;glass=0;strokeWidth=1;shadow=0;" vertex="1" parent="WIyWlLk6GJQsqaUBKTNV-1">
          <mxGeometry x="360" y="565" width="120" height="40" as="geometry" />
        </mxCell>
        <mxCell id="alJw4LODeS85s_fLXmWw-20" style="edgeStyle=orthogonalEdgeStyle;rounded=0;orthogonalLoop=1;jettySize=auto;html=1;exitX=0.5;exitY=1;exitDx=0;exitDy=0;entryX=0.5;entryY=0;entryDx=0;entryDy=0;" edge="1" parent="WIyWlLk6GJQsqaUBKTNV-1" source="alJw4LODeS85s_fLXmWw-10" target="alJw4LODeS85s_fLXmWw-19">
          <mxGeometry relative="1" as="geometry" />
        </mxCell>
        <mxCell id="alJw4LODeS85s_fLXmWw-10" value="计算电流" style="rounded=1;whiteSpace=wrap;html=1;fontSize=12;glass=0;strokeWidth=1;shadow=0;" vertex="1" parent="WIyWlLk6GJQsqaUBKTNV-1">
          <mxGeometry x="160" y="660" width="120" height="40" as="geometry" />
        </mxCell>
        <mxCell id="alJw4LODeS85s_fLXmWw-26" style="edgeStyle=orthogonalEdgeStyle;rounded=0;orthogonalLoop=1;jettySize=auto;html=1;exitX=0;exitY=0.5;exitDx=0;exitDy=0;entryX=0;entryY=0.5;entryDx=0;entryDy=0;" edge="1" parent="WIyWlLk6GJQsqaUBKTNV-1" source="alJw4LODeS85s_fLXmWw-19" target="alJw4LODeS85s_fLXmWw-3">
          <mxGeometry relative="1" as="geometry" />
        </mxCell>
        <mxCell id="alJw4LODeS85s_fLXmWw-19" value="显示测量数据并利用串口上传至上位机" style="rounded=1;whiteSpace=wrap;html=1;fontSize=12;glass=0;strokeWidth=1;shadow=0;" vertex="1" parent="WIyWlLk6GJQsqaUBKTNV-1">
          <mxGeometry x="160" y="730" width="120" height="40" as="geometry" />
        </mxCell>
      </root>
    </mxGraphModel>
  </diagram>
</mxfile>
